<svg width="687" height="612" viewBox="0 0 687 612" fill="none" xmlns="http://www.w3.org/2000/svg">
<path d="M343.066 417.238C522.297 417.238 667.593 367.351 667.593 305.812C667.593 244.274 522.297 194.387 343.066 194.387C163.835 194.387 18.5396 244.274 18.5396 305.812C18.5396 367.351 163.835 417.238 343.066 417.238Z" stroke="#3D149E" stroke-width="5.5"/>
<path d="M275.579 398.065C427.776 485.937 581.372 515.868 618.645 464.918C655.917 413.968 562.751 301.431 410.554 213.559C258.356 125.688 104.76 95.7572 67.4877 146.707C30.2154 197.657 123.381 310.194 275.579 398.065Z" stroke="#3D149E" stroke-width="5.5"/>
<path d="M230.349 349.722C313.859 494.367 432.024 591.966 494.276 567.715C556.528 543.465 539.294 406.548 455.783 261.903C372.272 117.258 254.108 19.6589 191.856 43.9094C129.604 68.1599 146.838 205.077 230.349 349.722Z" stroke="#3D149E" stroke-width="5.5"/>
<path d="M216.524 292.094C216.524 449.913 273.179 583.993 343.067 591.57C412.954 599.146 469.609 477.35 469.609 319.531C469.609 161.712 412.954 27.6317 343.067 20.0552C273.179 12.4787 216.524 134.275 216.524 292.094Z" stroke="#3D149E" stroke-width="5.5"/>
<path d="M226.618 254.422C147.708 391.097 135.875 524.903 200.188 553.285C264.501 581.668 380.605 493.879 459.515 357.203C538.425 220.528 550.258 86.7218 485.945 58.3394C421.632 29.957 305.528 117.746 226.618 254.422Z" stroke="#3D149E" stroke-width="5.5"/>
<path d="M267.405 211.427C122.76 294.938 39.3769 404.895 81.1634 457.022C122.95 509.15 274.083 483.709 418.728 400.198C563.373 316.687 646.756 206.73 604.97 154.603C563.183 102.475 412.05 127.916 267.405 211.427Z" stroke="#3D149E" stroke-width="5.5"/>
</svg>
